<svg xmlns="http://www.w3.org/2000/svg" width="512" height="512" viewBox="0 0 680 680" role="img">
<title>Tuff AI Benchmark</title>
<desc>Geometric hexagonal radar chart logo with indigo and amber overlapping blobs</desc>

<line stroke="#c7c5e8" stroke-width="1" x1="340" y1="340" x2="340" y2="100"/>
<line stroke="#c7c5e8" stroke-width="1" x1="340" y1="340" x2="547.8" y2="220"/>
<line stroke="#c7c5e8" stroke-width="1" x1="340" y1="340" x2="547.8" y2="460"/>
<line stroke="#c7c5e8" stroke-width="1" x1="340" y1="340" x2="340" y2="580"/>
<line stroke="#c7c5e8" stroke-width="1" x1="340" y1="340" x2="132.2" y2="460"/>
<line stroke="#c7c5e8" stroke-width="1" x1="340" y1="340" x2="132.2" y2="220"/>

<polygon fill="none" stroke="#c7c5e8" stroke-width="1" points="340,292 381.6,316 381.6,364 340,388 298.4,364 298.4,316"/>
<polygon fill="none" stroke="#c7c5e8" stroke-width="1" points="340,244 423.1,292 423.1,388 340,436 256.9,388 256.9,292"/>
<polygon fill="none" stroke="#c7c5e8" stroke-width="1" points="340,196 464.7,268 464.7,412 340,484 215.3,412 215.3,268"/>
<polygon fill="none" stroke="#c7c5e8" stroke-width="1" points="340,148 506.2,244 506.2,436 340,532 173.8,436 173.8,244"/>
<polygon fill="none" stroke="#9491cc" stroke-width="1.5" points="340,100 547.8,220 547.8,460 340,580 132.2,460 132.2,220"/>

<polygon fill="rgba(245,158,11,0.22)" stroke="#f59e0b" stroke-width="2" stroke-linejoin="round"
  points="340,255 534.9,227.5 409.3,380 340,570 275.1,377.5 149.5,230"/>

<circle fill="#f59e0b" cx="340" cy="255" r="4"/>
<circle fill="#f59e0b" cx="534.9" cy="227.5" r="4"/>
<circle fill="#f59e0b" cx="409.3" cy="380" r="4"/>
<circle fill="#f59e0b" cx="340" cy="570" r="4"/>
<circle fill="#f59e0b" cx="275.1" cy="377.5" r="4"/>
<circle fill="#f59e0b" cx="149.5" cy="230" r="4"/>

<polygon fill="rgba(79,70,229,0.55)" stroke="#4f46e5" stroke-width="2.5" stroke-linejoin="round"
  points="340,120 426.6,290 521.9,445 340,430 153.8,447.5 257.8,292.5"/>

<circle fill="#4f46e5" cx="340" cy="120" r="5.5"/>
<circle fill="#4f46e5" cx="426.6" cy="290" r="5.5"/>
<circle fill="#4f46e5" cx="521.9" cy="445" r="5.5"/>
<circle fill="#4f46e5" cx="340" cy="430" r="5.5"/>
<circle fill="#4f46e5" cx="153.8" cy="447.5" r="5.5"/>
<circle fill="#4f46e5" cx="257.8" cy="292.5" r="5.5"/>

<circle fill="#9491cc" cx="340" cy="340" r="4"/>
</svg>